<svg height="48.827" viewBox="0 0 48.827 48.827" width="48.827" xmlns="http://www.w3.org/2000/svg">
  <path fill="#000" d="M48.15,6.05l-4.368,-4.362c-0.451,-0.451 -1.044,-0.677 -1.636,-0.677c-0.593,0 -1.186,0.225 -1.636,0.676l-3.494,3.484l7.64,7.626l3.494,-3.483C49.053,8.412 49.053,6.949 48.15,6.05z"/>
  <path fill="#000" d="M14.336,27.81l7.64,7.627l21.045,-21.006l-7.64,-7.627z"/>
  <path fill="#000" d="M12.687,29.441l-1.631,9.253l9.271,-1.627z"/>
  <path fill="#000" d="M33.807,42.816H5.001V14.011H25.33l5.01,-5H3.234C1.455,9.011 0,10.466 0,12.245v32.338c0,1.778 1.455,3.233 3.234,3.233h32.339c1.777,0 3.232,-1.455 3.232,-3.233V21.462l-5,4.992L33.807,42.816L33.807,42.816z"/>
</svg>
